<svg width="31" height="30" viewBox="0 0 31 30" fill="none" xmlns="http://www.w3.org/2000/svg">
<circle cx="15.5" cy="11.25" r="5" fill="#fff"/>
<circle cx="21.75" cy="11.25" r="3.75" fill="#fff"/>
<circle cx="9.25" cy="11.25" r="3.75" fill="#fff"/>
<path fill-rule="evenodd" clip-rule="evenodd" d="M22.4605 22.5H25.3688C26.1083 22.5 26.6754 21.8627 26.4957 21.1453C26.0354 19.3073 24.8099 16.25 21.75 16.25C20.6424 16.25 19.7751 16.6506 19.0975 17.2489C20.9822 18.4717 21.9567 20.6128 22.4605 22.5Z" fill="#fff"/>
<path fill-rule="evenodd" clip-rule="evenodd" d="M11.9025 17.2489C11.2249 16.6506 10.3576 16.25 9.25003 16.25C6.19013 16.25 4.96461 19.3073 4.50432 21.1453C4.32467 21.8627 4.89172 22.5 5.63125 22.5H8.53947C9.04333 20.6128 10.0178 18.4717 11.9025 17.2489Z" fill="#fff"/>
<path d="M15.5 17.5C20.1358 17.5 21.3331 21.6262 21.6423 23.7576C21.7415 24.4408 21.1904 25 20.5 25H10.5C9.80964 25 9.25855 24.4408 9.35767 23.7576C9.66689 21.6262 10.8642 17.5 15.5 17.5Z" fill="#fff"/>
</svg>
