<svg width="31" height="30" viewBox="0 0 31 30" fill="none" xmlns="http://www.w3.org/2000/svg">
<g clip-path="url(#clip0_96_2015)">
<path d="M18.5368 17.04L20.0368 14.445C20.1268 14.28 20.0968 14.085 19.9468 13.965L18.3568 12.72C18.4018 12.495 18.4168 12.24 18.4168 12C18.4168 11.76 18.4018 11.505 18.3568 11.265L19.9468 10.02C20.0818 9.9 20.1268 9.705 20.0368 9.54L18.5368 6.945C18.4468 6.78 18.2518 6.72 18.0718 6.78L16.2118 7.53C15.8218 7.23 15.4018 6.99 14.9518 6.795L14.6668 4.815C14.6368 4.635 14.4718 4.5 14.2918 4.5H11.2918C11.1118 4.5 10.9468 4.635 10.9168 4.815L10.6318 6.81C10.1818 7.005 9.74682 7.245 9.37182 7.545L7.51182 6.795C7.34682 6.735 7.15182 6.795 7.04682 6.96L5.54682 9.555C5.45682 9.705 5.50182 9.915 5.63682 10.035L7.22682 11.28C7.18182 11.505 7.16682 11.76 7.16682 12C7.16682 12.24 7.18182 12.495 7.22682 12.735L5.63682 13.98C5.50182 14.1 5.45682 14.31 5.54682 14.46L7.04682 17.055C7.13682 17.22 7.33182 17.28 7.51182 17.22L9.37182 16.47C9.76182 16.77 10.1818 17.01 10.6318 17.205L10.9168 19.185C10.9468 19.365 11.1118 19.5 11.2918 19.5H14.2918C14.4718 19.5 14.6368 19.365 14.6668 19.185L14.9518 17.205C15.4018 17.01 15.8368 16.77 16.2118 16.47L18.0718 17.22C18.2518 17.265 18.4318 17.205 18.5368 17.04ZM12.7918 14.25C11.5468 14.25 10.5418 13.23 10.5418 12C10.5418 10.755 11.5468 9.75 12.7918 9.75C14.0218 9.75 15.0418 10.755 15.0418 12C15.0418 13.23 14.0218 14.25 12.7918 14.25Z" fill="#fff"/>
<path d="M26.2175 22.1845L25.2575 21.4345C25.2725 21.2845 25.2875 21.1495 25.2875 20.9995C25.2875 20.8495 25.2725 20.6995 25.2575 20.5645L26.2175 19.8145C26.2925 19.7395 26.3225 19.6195 26.2775 19.5295L25.3775 17.9695C25.3175 17.8645 25.2125 17.8345 25.0925 17.8645L23.9825 18.3145C23.7425 18.1345 23.5025 17.9845 23.2175 17.8795L23.0525 16.6945C23.0225 16.5745 22.9175 16.4995 22.8125 16.4995H21.0125C20.9075 16.4995 20.8025 16.5745 20.7875 16.6945L20.6225 17.8795C20.3525 17.9995 20.0975 18.1345 19.8575 18.3145L18.7475 17.8645C18.6425 17.8345 18.5375 17.8645 18.4625 17.9695L17.5625 19.5295C17.5025 19.6345 17.5325 19.7395 17.6225 19.8145L18.5825 20.5645C18.5675 20.7145 18.5525 20.8495 18.5525 20.9995C18.5525 21.1495 18.5675 21.2995 18.5825 21.4345L17.6225 22.1845C17.5475 22.2595 17.5175 22.3795 17.5625 22.4695L18.4625 24.0295C18.5225 24.1345 18.6275 24.1645 18.7475 24.1345L19.8575 23.6845C20.0975 23.8645 20.3375 24.0145 20.6225 24.1195L20.7875 25.3045C20.8025 25.4245 20.8925 25.4995 21.0125 25.4995H22.8125C22.9175 25.4995 23.0225 25.4245 23.0375 25.3045L23.2025 24.1195C23.4725 23.9995 23.7275 23.8645 23.9525 23.6845L25.0775 24.1345C25.1825 24.1645 25.2875 24.1345 25.3625 24.0295L26.2625 22.4695C26.3225 22.3795 26.2925 22.2595 26.2175 22.1845ZM22.0025 22.4995C21.1775 22.4995 20.5025 21.8245 20.5025 20.9995C20.5025 20.1745 21.1775 19.4995 22.0025 19.4995C22.8275 19.4995 23.5025 20.1745 23.5025 20.9995C23.5025 21.8245 22.8275 22.4995 22.0025 22.4995Z" fill="#fff"/>
</g>
<defs>
<clipPath id="clip0_96_2015">
<rect width="30" height="30" fill="white" transform="translate(0.5)"/>
</clipPath>
</defs>
</svg>
