<svg width="33" height="32" viewBox="0 0 33 32" fill="none" xmlns="http://www.w3.org/2000/svg">
<path d="M16.5 15.4907L14.2334 17.224C14.1 17.3351 13.9667 17.3409 13.8334 17.2413C13.7 17.1418 13.6556 17.0138 13.7 16.8573L14.5667 14.0573L12.2334 12.1907C12.1223 12.0795 12.0889 11.952 12.1334 11.808C12.1778 11.664 12.2778 11.5915 12.4334 11.5907H15.3L16.1667 8.85732C16.2112 8.70177 16.3223 8.62399 16.5 8.62399C16.6778 8.62399 16.7889 8.70177 16.8334 8.85732L17.7 11.5907H20.5334C20.6889 11.5907 20.7947 11.6631 20.8507 11.808C20.9067 11.9529 20.8787 12.0804 20.7667 12.1907L18.4 14.0573L19.2667 16.8573C19.3112 17.0129 19.2667 17.1409 19.1334 17.2413C19 17.3418 18.8667 17.336 18.7334 17.224L16.5 15.4907ZM16.5 27.5907L10.2667 29.6573C9.82226 29.8129 9.41649 29.7573 9.04937 29.4907C8.68226 29.224 8.49915 28.8684 8.50004 28.424V19.9573C7.6556 19.024 7.00004 17.9573 6.53337 16.7573C6.06671 15.5573 5.83337 14.2795 5.83337 12.924C5.83337 9.94621 6.86671 7.42399 8.93337 5.35732C11 3.29066 13.5223 2.25732 16.5 2.25732C19.4778 2.25732 22 3.29066 24.0667 5.35732C26.1334 7.42399 27.1667 9.94621 27.1667 12.924C27.1667 14.2795 26.9334 15.5573 26.4667 16.7573C26 17.9573 25.3445 19.024 24.5 19.9573V28.424C24.5 28.8684 24.3165 29.224 23.9494 29.4907C23.5823 29.7573 23.1769 29.8129 22.7334 29.6573L16.5 27.5907ZM16.5 20.924C18.7223 20.924 20.6112 20.1462 22.1667 18.5907C23.7223 17.0351 24.5 15.1462 24.5 12.924C24.5 10.7018 23.7223 8.81288 22.1667 7.25732C20.6112 5.70177 18.7223 4.92399 16.5 4.92399C14.2778 4.92399 12.3889 5.70177 10.8334 7.25732C9.27782 8.81288 8.50004 10.7018 8.50004 12.924C8.50004 15.1462 9.27782 17.0351 10.8334 18.5907C12.3889 20.1462 14.2778 20.924 16.5 20.924Z" fill="#737791"/>
</svg>
