<svg width="33" height="32" viewBox="0 0 33 32" fill="none" xmlns="http://www.w3.org/2000/svg">
<path fill-rule="evenodd" clip-rule="evenodd" d="M4.65644 3.83808C3.48486 5.00965 3.48486 6.89527 3.48486 10.6665V21.3332C3.48486 25.1044 3.48486 26.99 4.65644 28.1616C5.82801 29.3332 7.71363 29.3332 11.4849 29.3332H22.1515C25.9228 29.3332 27.8084 29.3332 28.98 28.1616C30.1515 26.99 30.1515 25.1044 30.1515 21.3332V10.6665C30.1515 6.89527 30.1515 5.00965 28.98 3.83808C27.8084 2.6665 25.9228 2.6665 22.1515 2.6665H11.4849C7.71363 2.6665 5.82801 2.6665 4.65644 3.83808ZM24.5943 12.7394C25.0027 12.1267 24.8372 11.2989 24.2245 10.8904C23.6118 10.482 22.7839 10.6475 22.3755 11.2602L18.3166 17.3485L17.7049 16.1252C16.7893 14.2939 14.2368 14.135 13.101 15.8386L9.04213 21.9269C8.63366 22.5396 8.79923 23.3674 9.41193 23.7759C10.0246 24.1844 10.8525 24.0188 11.2609 23.4061L15.3198 17.3178L15.9315 18.5411C16.8471 20.3725 19.3996 20.5314 20.5354 18.8277L24.5943 12.7394Z" fill="#737791"/>
</svg>
