<svg width="33" height="32" viewBox="0 0 33 32" fill="none" xmlns="http://www.w3.org/2000/svg">
<path fill-rule="evenodd" clip-rule="evenodd" d="M4.81824 13.8668C4.81824 10.8799 4.81824 9.38641 5.39954 8.24555C5.91086 7.24202 6.72676 6.42612 7.73029 5.91479C8.87115 5.3335 10.3646 5.3335 13.3516 5.3335H20.2849C23.2719 5.3335 24.7653 5.3335 25.9062 5.91479C26.9097 6.42612 27.7256 7.24202 28.2369 8.24555C28.8182 9.38641 28.8182 10.8799 28.8182 13.8668V15.4668C28.8182 18.4538 28.8182 19.9473 28.2369 21.0881C27.7256 22.0916 26.9097 22.9075 25.9062 23.4189C24.7653 24.0002 23.2719 24.0002 20.2849 24.0002H10.7039C10.3502 24.0002 10.0111 24.1406 9.76105 24.3907L7.09438 27.0574C6.25443 27.8973 4.81824 27.3024 4.81824 26.1145V24.0002V17.3335V13.8668ZM12.8182 10.6668C12.0819 10.6668 11.4849 11.2638 11.4849 12.0002C11.4849 12.7365 12.0819 13.3335 12.8182 13.3335H20.8182C21.5546 13.3335 22.1516 12.7365 22.1516 12.0002C22.1516 11.2638 21.5546 10.6668 20.8182 10.6668H12.8182ZM12.8182 16.0002C12.0819 16.0002 11.4849 16.5971 11.4849 17.3335C11.4849 18.0699 12.0819 18.6668 12.8182 18.6668H16.8182C17.5546 18.6668 18.1516 18.0699 18.1516 17.3335C18.1516 16.5971 17.5546 16.0002 16.8182 16.0002H12.8182Z" fill="#737791"/>
</svg>
