<svg width="32" height="32" viewBox="0 0 32 32" fill="none" xmlns="http://www.w3.org/2000/svg">
<path fill-rule="evenodd" clip-rule="evenodd" d="M11.3555 6.395C7.79116 8.12165 5.33325 11.7739 5.33325 16.0002C5.33325 16.2627 5.34274 16.523 5.36138 16.7808L13.5504 14.5865L11.3555 6.395ZM15.2197 5.3616L17.5867 14.1952L17.6022 14.253C17.6689 14.5006 17.7629 14.8499 17.8042 15.1701C17.8562 15.5737 17.8684 16.2121 17.4928 16.8627C17.1172 17.5132 16.5583 17.8218 16.1827 17.9786C15.8848 18.103 15.5353 18.1962 15.2875 18.2622L15.2875 18.2622L15.2296 18.2777L6.39493 20.6449C8.12166 24.2091 11.7738 26.6668 15.9999 26.6668C21.891 26.6668 26.6666 21.8912 26.6666 16.0002C26.6666 10.1091 21.891 5.3335 15.9999 5.3335C15.7375 5.3335 15.4773 5.34297 15.2197 5.3616Z" fill="#737791"/>
<path d="M13.2392 5.69663C12.9046 4.44786 12.7373 3.82348 12.1611 3.56365C11.5848 3.30383 11.0763 3.55693 10.0591 4.06315C9.29367 4.44412 8.56477 4.89876 7.88314 5.42179C6.49401 6.48771 5.32843 7.8168 4.45295 9.33317C3.57747 10.8495 3.00924 12.5235 2.78069 14.2595C2.66855 15.1113 2.63927 15.9699 2.69208 16.8233C2.76224 17.9573 2.79733 18.5242 3.31046 18.8934C3.8236 19.2625 4.44798 19.0952 5.69675 18.7606L13.4242 16.69C14.6384 16.3647 15.2455 16.202 15.5217 15.7237C15.7978 15.2454 15.6351 14.6383 15.3098 13.424L13.2392 5.69663Z" fill="#737791"/>
</svg>
