<svg width="20" height="20" viewBox="0 0 20 20" fill="none" xmlns="http://www.w3.org/2000/svg">
<path d="M10 0C4.47749 0 0 4.47758 0 10.0002C0 15.5224 4.47749 20 10 20C15.5226 20 20 15.5224 20 10.0002C19.9999 4.47758 15.5226 0 10 0ZM10 19.1115C4.97535 19.1115 0.888567 15.0238 0.888567 10.0002C0.888567 4.97624 4.97535 0.888823 10 0.888823C15.0241 0.888823 19.1111 4.97619 19.1111 10.0002C19.1111 15.0237 15.024 19.1115 10 19.1115Z" fill="#737791"/>
<path d="M10.31 9.33978H17.7406C17.4036 5.35984 14.0615 2.22266 9.99647 2.22266C5.70793 2.22266 2.21875 5.71178 2.21875 10.0004C2.21875 14.289 5.70793 17.7788 9.99647 17.7788C14.0212 17.7788 17.3416 14.7046 17.7351 10.7812H10.31L10.8814 11.3531C11.1628 11.6346 11.1628 12.0907 10.8814 12.3719C10.5996 12.6536 10.1436 12.6536 9.86218 12.3719L8.06115 10.5705C8.06034 10.5702 8.06034 10.5695 8.05969 10.5695L7.5508 10.0605L8.05969 9.55165C8.06034 9.55165 8.06034 9.551 8.06115 9.55067L9.74211 7.86926C9.88315 7.72843 10.0676 7.65809 10.2518 7.65809C10.436 7.65809 10.6203 7.72837 10.7613 7.86926C11.0431 8.15075 11.0431 8.60687 10.7613 8.88815L10.31 9.33978Z" fill="#737791"/>
</svg>
