<svg width="35" height="34" viewBox="0 0 35 34" fill="none" xmlns="http://www.w3.org/2000/svg">
<path d="M17.5 4.24463C10.4559 4.24463 4.74438 9.95618 4.74438 17.0002C4.74438 24.0443 10.4559 29.7558 17.5 29.7558C24.5441 29.7558 30.2556 24.0443 30.2556 17.0002C30.2556 9.95618 24.5441 4.24463 17.5 4.24463ZM18.1349 23.1844L18.1406 24.087C18.1406 24.2123 18.0381 24.3176 17.9128 24.3176H17.1042C16.979 24.3176 16.8765 24.2151 16.8765 24.0899V23.1958C14.3481 23.0079 13.158 21.5672 13.0298 20.0012C13.0184 19.8674 13.1238 19.7535 13.2576 19.7535H14.573C14.6841 19.7535 14.7809 19.8332 14.798 19.9414C14.9432 20.844 15.6464 21.5188 16.9078 21.6868V17.6238L16.2045 17.4444C14.7154 17.0885 13.2975 16.1603 13.2975 14.2356C13.2975 12.1599 14.8748 11.0438 16.8907 10.8474V9.90778C16.8907 9.7825 16.9932 9.68 17.1185 9.68H17.9185C18.0438 9.68 18.1463 9.7825 18.1463 9.90778V10.8388C20.0967 11.0353 21.5602 12.1742 21.731 13.948C21.7452 14.0818 21.6399 14.1986 21.5032 14.1986H20.2248C20.1109 14.1986 20.0141 14.1131 19.9999 14.0021C19.886 13.1707 19.2197 12.4931 18.1349 12.345V16.1688L18.8581 16.3368C20.7031 16.7924 21.9588 17.675 21.9588 19.651C21.9588 21.795 20.3643 22.9908 18.1349 23.1844ZM15.0685 14.1046C15.0685 14.8278 15.5155 15.3887 16.4778 15.7361C16.6117 15.7902 16.7455 15.8329 16.9049 15.8784V12.3479C15.8543 12.4817 15.0685 13.0711 15.0685 14.1046ZM18.3855 17.9541C18.3058 17.937 18.226 17.917 18.1349 17.8914V21.6982C19.3478 21.59 20.1849 20.9237 20.1849 19.8076C20.1849 18.9335 19.7322 18.3641 18.3855 17.9541Z" fill="#737791"/>
</svg>
