<svg width="221" height="43" viewBox="0 0 221 43" fill="none" xmlns="http://www.w3.org/2000/svg">
<path d="M63.6564 23.836C64.1762 23.5389 64.7888 23.3533 65.4385 23.3533C65.5128 23.3533 65.587 23.3533 65.6613 23.3533H65.6798C65.6984 23.3533 65.7355 23.3533 65.7541 23.3533C65.7912 23.3533 65.8283 23.3533 65.8655 23.3719C65.884 23.3719 65.9026 23.3719 65.9397 23.3904C66.0325 23.3904 66.1068 23.409 66.2182 23.4276C67.1835 23.5946 67.9446 24.0587 68.5015 24.3929C69.6339 25.0426 70.1166 25.2468 70.5807 25.4325C71.1933 25.6738 71.4903 25.6923 71.8059 25.7109C71.8987 25.7109 72.0101 25.7109 72.1029 25.7109C72.4371 25.6923 72.7341 25.6923 73.3281 25.4325C73.4581 25.3768 73.6066 25.3211 73.7551 25.2468C74.8132 24.6342 75.5187 23.5018 75.5187 22.2023C75.5187 20.9029 74.8132 19.7705 73.7737 19.1764C73.6066 19.1022 73.4581 19.0465 73.3281 18.9908C72.7155 18.7495 72.4185 18.7309 72.1029 18.7123C72.0101 18.7123 71.8987 18.7123 71.8059 18.7123C71.4717 18.7309 71.1747 18.7309 70.5807 18.9908C70.098 19.1764 69.6154 19.3992 68.5015 20.0304C67.8332 20.4017 66.9236 20.9957 65.6984 21.0514H65.6798C65.6056 21.0514 65.5313 21.0514 65.4571 21.0514C63.5079 21.0514 61.9485 19.4735 61.9485 17.5428C61.9485 15.5936 63.5264 14.0343 65.4571 14.0343C65.5313 14.0343 65.6056 14.0343 65.6798 14.0343H65.6984C65.717 14.0343 65.7541 14.0343 65.7726 14.0343C65.8098 14.0343 65.8469 14.0343 65.884 14.0528C67.0164 14.1642 67.8889 14.7026 68.5015 15.0553C69.6339 15.705 70.1166 15.9092 70.5807 16.0948C71.1933 16.3362 71.4903 16.3547 71.8059 16.3733C71.8987 16.3733 72.0101 16.3733 72.1029 16.3733C72.4371 16.3547 72.7341 16.3547 73.3281 16.0948C73.4581 16.0392 73.6066 15.9835 73.7551 15.9092C74.8132 15.2966 75.5187 14.1642 75.5187 12.8647C75.5187 11.5653 74.8132 10.4329 73.7737 9.83883C73.6066 9.76458 73.4581 9.70889 73.3281 9.65319C72.7155 9.41186 72.4185 9.3933 72.1029 9.37474C72.0101 9.37474 71.8987 9.37474 71.8059 9.37474C71.4717 9.3933 71.1747 9.3933 70.5807 9.65319C70.098 9.83883 69.6154 10.0616 68.5015 10.6928C67.8332 11.064 66.9236 11.6581 65.6984 11.7138H65.6798C65.6056 11.7138 65.5313 11.7138 65.4571 11.7138C63.5079 11.7138 61.9485 10.1359 61.9485 8.20521C61.9485 6.25601 63.5264 4.69665 65.4571 4.69665C65.5313 4.69665 65.6056 4.69665 65.6798 4.69665H65.6984C65.717 4.69665 65.7541 4.69665 65.7726 4.69665C65.8098 4.69665 65.8469 4.69665 65.884 4.71521C67.0164 4.8266 67.8889 5.36495 68.5015 5.71766C69.6339 6.36739 70.1166 6.5716 70.5807 6.75724C71.1933 6.99857 71.4903 7.01713 71.8059 7.03569C71.8987 7.03569 72.0101 7.03569 72.1029 7.03569C72.4371 7.01713 72.7341 7.01713 73.3281 6.75724C73.4581 6.70154 73.6066 6.64585 73.7551 6.5716C74.8132 5.95899 75.5187 4.8266 75.5187 3.52713C75.5187 1.57793 73.9407 0.0185638 72.0101 0.0185638C71.9358 0.0185638 71.8616 0.0185638 71.7688 0.0185638C71.7502 0.0185638 71.7131 0.0185638 71.6945 0.0185638C71.6574 0.0185638 71.6203 0.0185638 71.5831 0.0371277C70.4507 0.148511 69.5782 0.686862 68.9656 1.03957C67.8332 1.68931 67.3506 1.89351 66.8865 2.07915C66.2739 2.32048 65.9769 2.33904 65.6613 2.35761C65.5684 2.35761 65.4571 2.35761 65.3642 2.35761C65.0301 2.33904 64.7331 2.33904 64.139 2.07915C63.6564 1.89351 63.1737 1.67075 62.0599 1.03957C61.4287 0.686862 60.5562 0.148511 59.4424 0.0371277C59.4053 0.0371277 59.3681 0.0371277 59.331 0.0185638C59.3124 0.0185638 59.2753 0.0185638 59.2567 0.0185638L59.2196 0C59.1454 0 59.0711 0 58.9968 0C57.0476 0 55.4883 1.57793 55.4883 3.50856V12.8462V22.1838C55.4883 24.133 57.0662 25.6923 58.9968 25.6923C59.0711 25.6923 59.1454 25.6923 59.2196 25.6923H59.2382C60.4634 25.6181 61.373 25.0426 62.0413 24.6713C62.821 24.2444 63.2851 24.003 63.6564 23.836Z" fill="#FF6410"/>
<path d="M78.4486 4.67773C78.3743 4.67773 78.3 4.67773 78.2072 4.67773C78.1887 4.67773 78.1515 4.67773 78.133 4.67773C78.0958 4.67773 78.0587 4.67773 78.0216 4.6963C76.8892 4.80768 76.0167 5.34603 75.4041 5.69875C74.2717 6.34848 73.789 6.55268 73.3249 6.73832C72.7123 6.97965 72.4153 6.99821 72.0997 7.01678C72.0069 7.01678 71.8955 7.01678 71.8027 7.01678C71.4686 6.99821 71.1715 6.99821 70.5775 6.73832C70.0948 6.55268 69.6122 6.32992 68.4983 5.69875C67.8672 5.34603 66.9947 4.80768 65.8808 4.6963C65.8437 4.6963 65.8066 4.6963 65.7695 4.67773C65.7509 4.67773 65.7138 4.67773 65.6952 4.67773H65.6766C65.6024 4.67773 65.5281 4.67773 65.4539 4.67773C63.5047 4.67773 61.9453 6.25566 61.9453 8.1863C61.9453 10.1355 63.5232 11.6949 65.4539 11.6949C65.5281 11.6949 65.6024 11.6949 65.6766 11.6949H65.6952C66.9204 11.6206 67.83 11.0451 68.4983 10.6739C69.6307 10.0241 70.1134 9.81992 70.5775 9.63428C71.1901 9.39295 71.4871 9.37438 71.8027 9.35582C71.8955 9.35582 72.0069 9.35582 72.0997 9.35582C72.4339 9.37438 72.7309 9.37438 73.3249 9.63428C73.8076 9.81992 74.2903 10.0427 75.4041 10.6739C76.0724 11.0451 76.982 11.6392 78.2072 11.6949H78.2258C78.3 11.6949 78.3743 11.6949 78.4486 11.6949C80.3978 11.6949 81.9571 10.1169 81.9571 8.1863C81.9757 6.2371 80.3978 4.67773 78.4486 4.67773Z" fill="#FBBC1D"/>
<path d="M78.4525 14.0156C78.3782 14.0156 78.304 14.0156 78.2111 14.0156C78.1926 14.0156 78.1554 14.0156 78.1369 14.0156C78.0998 14.0156 78.0626 14.0156 78.0255 14.0342C76.8931 14.1456 76.0206 14.6839 75.408 15.0366C74.2756 15.6864 73.7929 15.8906 73.3288 16.0762C72.7162 16.3175 72.4192 16.3361 72.1036 16.3547C72.0108 16.3547 71.8994 16.3547 71.8066 16.3547C71.4725 16.3361 71.1754 16.3361 70.5814 16.0762C70.0987 15.8906 69.6161 15.6678 68.5023 15.0366C67.8711 14.6839 66.9986 14.1456 65.8847 14.0342C65.8476 14.0342 65.8105 14.0342 65.7734 14.0156C65.7548 14.0156 65.7177 14.0156 65.6991 14.0156H65.6805C65.6063 14.0156 65.532 14.0156 65.4578 14.0156C63.5086 14.0156 61.9492 15.5936 61.9492 17.5242C61.9492 19.4734 63.5271 21.0328 65.4578 21.0328C65.532 21.0328 65.6063 21.0328 65.6805 21.0328H65.6991C66.9243 20.9585 67.834 20.383 68.5023 20.0117C69.6346 19.362 70.1173 19.1578 70.5814 18.9722C71.194 18.7308 71.491 18.7123 71.8066 18.6937C71.8994 18.6937 72.0108 18.6937 72.1036 18.6937C72.4378 18.7123 72.7348 18.7123 73.3288 18.9722C73.8115 19.1578 74.2942 19.3806 75.408 20.0117C76.0763 20.383 76.9859 20.9771 78.2111 21.0328H78.2297C78.304 21.0328 78.3782 21.0328 78.4525 21.0328C80.4017 21.0328 81.961 19.4548 81.961 17.5242C81.9796 15.5936 80.4017 14.0156 78.4525 14.0156Z" fill="#FBBC1D"/>
<path d="M78.4525 23.3535C78.3782 23.3535 78.304 23.3535 78.2111 23.3535C78.1926 23.3535 78.1554 23.3535 78.1369 23.3535C78.0998 23.3535 78.0626 23.3535 78.0255 23.3721C76.8931 23.4835 76.0206 24.0218 75.408 24.3745C74.2756 25.0243 73.7929 25.2285 73.3288 25.4141C72.7162 25.6554 72.4192 25.674 72.1036 25.6926C72.0108 25.6926 71.8994 25.6926 71.8066 25.6926C71.4725 25.674 71.1754 25.674 70.5814 25.4141C70.0987 25.2285 69.6161 25.0057 68.5023 24.3745C67.8711 24.0218 66.9986 23.4835 65.8847 23.3721C65.8476 23.3721 65.8105 23.3721 65.7734 23.3535C65.7548 23.3535 65.7177 23.3535 65.6991 23.3535H65.6805C65.6063 23.3535 65.532 23.3535 65.4578 23.3535C63.5086 23.3535 61.9492 24.9314 61.9492 26.8621C61.9492 28.8113 63.5271 30.3706 65.4578 30.3706C65.532 30.3706 65.6063 30.3706 65.6805 30.3706H65.6991C66.9243 30.2964 67.834 29.7209 68.5023 29.3496C69.6346 28.6999 70.1173 28.4957 70.5814 28.3101C71.194 28.0687 71.491 28.0502 71.8066 28.0316C71.8994 28.0316 72.0108 28.0316 72.1036 28.0316C72.4378 28.0502 72.7348 28.0502 73.3288 28.3101C73.8115 28.4957 74.2942 28.7185 75.408 29.3496C76.0763 29.7209 76.9859 30.315 78.2111 30.3706H78.2297C78.304 30.3706 78.3782 30.3706 78.4525 30.3706C80.4017 30.3706 81.961 28.7927 81.961 26.8621C81.9796 24.9314 80.4017 23.3535 78.4525 23.3535Z" fill="#FBBC1D"/>
<path d="M6.07037 24.1515C4.17686 23.0933 2.69176 21.5897 1.61505 19.659C0.538351 17.7098 0 15.4822 0 12.9204C0 10.4142 0.556915 8.16801 1.67075 6.21881C2.76601 4.26961 4.28825 2.7845 6.20032 1.72636C8.1124 0.668225 10.2658 0.148438 12.6234 0.148438C14.9996 0.148438 17.1344 0.668225 19.0465 1.72636C20.9586 2.7845 22.4808 4.26961 23.5946 6.21881C24.7085 8.16801 25.2654 10.3957 25.2654 12.9204C25.2654 15.445 24.6899 17.6727 23.5575 19.6219C22.4251 21.5711 20.8657 23.0748 18.898 24.1329C16.9302 25.191 14.7582 25.7294 12.4006 25.7294C10.0802 25.748 7.96388 25.2096 6.07037 24.1515ZM16.132 20.3459C17.2829 19.7147 18.2297 18.768 18.9351 17.5056C19.6591 16.2433 20.0118 14.721 20.0118 12.9204C20.0118 11.1197 19.6591 9.59743 18.9722 8.35365C18.2854 7.10988 17.3757 6.16312 16.2248 5.55051C15.0924 4.91934 13.8486 4.60376 12.5306 4.60376C11.2126 4.60376 9.98734 4.91934 8.87351 5.55051C7.75968 6.18168 6.86862 7.10988 6.20032 8.35365C5.53202 9.59743 5.21644 11.1197 5.21644 12.9204C5.21644 15.5935 5.9033 17.6541 7.25846 19.1021C8.61362 20.5501 10.3401 21.2926 12.4006 21.2926C13.7372 21.2926 14.9625 20.9771 16.132 20.3459Z" fill="#FF6410"/>
<path d="M45.7578 1.37327C47.2986 2.19008 48.5052 3.37816 49.3777 4.97465C50.2502 6.57114 50.6772 8.48322 50.6772 10.7294V25.3392H45.5907V11.4906C45.5907 9.2629 45.0338 7.57359 43.92 6.38551C42.8061 5.19742 41.3025 4.60338 39.3718 4.60338C37.4597 4.60338 35.9375 5.19742 34.8051 6.38551C33.6727 7.57359 33.1158 9.2629 33.1158 11.4906V25.3392H27.9922V0.556462H33.1158V3.39673C33.9512 2.37572 35.0279 1.57747 36.3273 1.02056C37.6268 0.445079 39.0191 0.166621 40.4856 0.166621C42.472 0.148057 44.217 0.556462 45.7578 1.37327Z" fill="#FF6410"/>
<path d="M103.715 6.12619C105.256 6.943 106.462 8.13109 107.335 9.72758C108.207 11.3241 108.634 13.2361 108.634 15.4824V30.0921H103.548V16.262C103.548 14.0344 102.991 12.3451 101.877 11.157C100.763 9.9689 99.2595 9.37486 97.3288 9.37486C95.4168 9.37486 93.8945 9.9689 92.7621 11.157C91.6298 12.3451 91.0728 14.0344 91.0728 16.262V30.1107H85.9492V5.32795H91.0728V8.16821C91.9082 7.1472 92.9849 6.34896 94.2844 5.79204C95.5838 5.21656 96.9761 4.93811 98.4427 4.93811C100.429 4.91954 102.174 5.32795 103.715 6.12619Z" fill="#FBBC1D"/>
<path d="M127.904 6.0699C129.389 6.83102 130.558 7.77778 131.394 8.92873V5.32735H136.573V30.5185C136.573 32.8018 136.09 34.8253 135.125 36.6074C134.16 38.3895 132.786 39.8004 130.967 40.8214C129.148 41.8424 126.994 42.3436 124.469 42.3436C121.109 42.3436 118.325 41.564 116.097 39.986C113.87 38.4081 112.626 36.2733 112.31 33.5815H117.397C117.787 34.8624 118.622 35.9205 119.884 36.7002C121.165 37.4985 122.687 37.8883 124.451 37.8883C126.512 37.8883 128.182 37.2571 129.463 35.9948C130.744 34.7325 131.375 32.9132 131.375 30.4999V26.3602C130.503 27.5297 129.333 28.5136 127.848 29.3118C126.363 30.1101 124.674 30.4999 122.78 30.4999C120.627 30.4999 118.64 29.9616 116.858 28.8663C115.076 27.771 113.665 26.2488 112.626 24.281C111.586 22.3133 111.066 20.0856 111.066 17.598C111.066 15.1105 111.586 12.9014 112.626 10.9893C113.665 9.07724 115.076 7.57357 116.858 6.51543C118.64 5.4573 120.608 4.91895 122.78 4.91895C124.729 4.91895 126.419 5.30879 127.904 6.0699ZM130.336 13.2355C129.63 11.9732 128.702 11.0079 127.57 10.3581C126.437 9.68985 125.193 9.37427 123.875 9.37427C122.557 9.37427 121.332 9.68985 120.181 10.3396C119.049 10.9893 118.121 11.9361 117.415 13.1799C116.71 14.4236 116.357 15.9087 116.357 17.6166C116.357 19.3245 116.71 20.8282 117.415 22.1091C118.121 23.39 119.049 24.3738 120.2 25.0607C121.351 25.729 122.576 26.0817 123.857 26.0817C125.175 26.0817 126.4 25.7476 127.551 25.0978C128.683 24.4481 129.612 23.4642 130.317 22.2019C131.023 20.921 131.375 19.4359 131.375 17.728C131.394 15.983 131.041 14.4979 130.336 13.2355Z" fill="#FBBC1D"/>
<path d="M140.826 10.9893C141.866 9.07724 143.277 7.57357 145.059 6.51543C146.841 5.4573 148.809 4.91895 150.981 4.91895C152.93 4.91895 154.638 5.30879 156.086 6.0699C157.534 6.83102 158.703 7.77778 159.576 8.92873V5.32735H164.755V30.1101H159.576V26.4159C158.703 27.5854 157.515 28.5507 156.03 29.3304C154.527 30.1101 152.819 30.4999 150.907 30.4999C148.772 30.4999 146.823 29.9616 145.059 28.8663C143.295 27.771 141.885 26.2488 140.845 24.281C139.805 22.3133 139.286 20.0856 139.286 17.598C139.267 15.1105 139.787 12.9014 140.826 10.9893ZM158.499 13.2355C157.794 11.9732 156.866 11.0079 155.733 10.3581C154.601 9.68985 153.357 9.37427 152.039 9.37427C150.721 9.37427 149.496 9.68985 148.345 10.3396C147.212 10.9893 146.284 11.9361 145.579 13.1799C144.873 14.4236 144.521 15.9087 144.521 17.6166C144.521 19.3245 144.873 20.8282 145.579 22.1091C146.284 23.39 147.212 24.3738 148.363 25.0607C149.514 25.729 150.74 26.0817 152.02 26.0817C153.338 26.0817 154.564 25.7476 155.715 25.0978C156.847 24.4481 157.775 23.4642 158.481 22.2019C159.186 20.921 159.539 19.4359 159.539 17.728C159.557 15.983 159.205 14.4979 158.499 13.2355Z" fill="#FBBC1D"/>
<path d="M184.228 6.0699C185.713 6.83102 186.883 7.77778 187.718 8.92873V5.32735H192.897V30.5185C192.897 32.8018 192.415 34.8253 191.449 36.6074C190.484 38.3895 189.11 39.8004 187.291 40.8214C185.472 41.8424 183.318 42.3436 180.794 42.3436C177.434 42.3436 174.649 41.564 172.421 39.986C170.194 38.4081 168.95 36.2733 168.634 33.5815H173.721C174.111 34.8624 174.946 35.9205 176.208 36.7002C177.489 37.4985 179.012 37.8883 180.775 37.8883C182.836 37.8883 184.506 37.2571 185.787 35.9948C187.068 34.7325 187.699 32.9132 187.699 30.4999V26.3602C186.827 27.5297 185.657 28.5136 184.172 29.3118C182.687 30.1101 180.998 30.4999 179.104 30.4999C176.951 30.4999 174.965 29.9616 173.183 28.8663C171.4 27.771 169.99 26.2488 168.95 24.281C167.91 22.3133 167.391 20.0856 167.391 17.598C167.391 15.1105 167.91 12.9014 168.95 10.9893C169.99 9.07724 171.4 7.57357 173.183 6.51543C174.965 5.4573 176.932 4.91895 179.104 4.91895C181.035 4.91895 182.743 5.30879 184.228 6.0699ZM186.66 13.2355C185.954 11.9732 185.026 11.0079 183.894 10.3581C182.761 9.68985 181.518 9.37427 180.2 9.37427C178.882 9.37427 177.656 9.68985 176.505 10.3396C175.373 10.9893 174.445 11.9361 173.739 13.1799C173.034 14.4236 172.681 15.9087 172.681 17.6166C172.681 19.3245 173.034 20.8282 173.739 22.1091C174.445 23.39 175.373 24.3738 176.524 25.0607C177.675 25.729 178.9 26.0817 180.181 26.0817C181.499 26.0817 182.724 25.7476 183.875 25.0978C185.008 24.4481 185.936 23.4642 186.641 22.2019C187.347 20.921 187.699 19.4359 187.699 17.728C187.718 15.983 187.365 14.4979 186.66 13.2355Z" fill="#FBBC1D"/>
<path d="M219.816 19.6215H200.881C201.029 21.6078 201.772 23.1857 203.09 24.3924C204.408 25.599 206.023 26.1931 207.953 26.1931C210.719 26.1931 212.669 25.0421 213.801 22.7217H219.333C218.59 25.005 217.235 26.8614 215.268 28.3279C213.3 29.7759 210.868 30.5185 207.953 30.5185C205.577 30.5185 203.461 29.9801 201.586 28.922C199.711 27.8638 198.244 26.3602 197.186 24.4295C196.128 22.4989 195.59 20.2527 195.59 17.7094C195.59 15.1662 196.11 12.9199 197.149 10.9893C198.189 9.05867 199.637 7.555 201.512 6.51543C203.387 5.45729 205.54 4.9375 207.972 4.9375C210.311 4.9375 212.39 5.43872 214.228 6.45973C216.047 7.48075 217.477 8.91016 218.498 10.748C219.519 12.5858 220.02 14.7206 220.02 17.1154C220.001 18.0436 219.946 18.8789 219.816 19.6215ZM214.655 15.4818C214.618 13.5882 213.949 12.0846 212.631 10.9336C211.313 9.80123 209.68 9.22575 207.731 9.22575C205.967 9.22575 204.445 9.78266 203.182 10.9151C201.92 12.0474 201.178 13.5697 200.936 15.4818H214.655Z" fill="#FBBC1D"/>
</svg>
